<?xml version="1.0" encoding="UTF-8"?>
<!DOCTYPE svg PUBLIC "-//W3C//DTD SVG 1.1//EN" "http://www.w3.org/Graphics/SVG/1.1/DTD/svg11.dtd">
<!-- Creator: CorelDRAW Home & Student X7 -->
<svg xmlns="http://www.w3.org/2000/svg" xml:space="preserve" width="4724px" height="4724px" version="1.1" style="shape-rendering:geometricPrecision; text-rendering:geometricPrecision; image-rendering:optimizeQuality; fill-rule:evenodd; clip-rule:evenodd"
viewBox="0 0 4719 4719"
 xmlns:xlink="http://www.w3.org/1999/xlink">
 <defs>
  <style type="text/css">
   <![CDATA[
    .fil0 {fill:none}
    .fil2 {fill:white;fill-rule:nonzero}
    .fil4 {fill:white;fill-rule:nonzero}
    .fil1 {fill:#0072CE;fill-rule:nonzero}
    .fil3 {fill:#0072CE;fill-rule:nonzero}
   ]]>
  </style>
 </defs>
 <g id="Livello_x0020_1">
  <metadata id="CorelCorpID_0Corel-Layer"/>
  <circle class="fil0" cx="2359" cy="2359" r="2359"/>
  <polygon class="fil0" points="2362,0 1244,810 117,1622 551,2945 970,4267 2365,4264 3752,4264 4180,2945 4602,1624 3482,815 "/>
  <polygon class="fil1" points="1994,1858 2480,363 2362,0 1835,1622 119,1622 443,1858 "/>
  <polygon class="fil2" points="1525,3302 1765,2562 1122,2094 768,2094 1505,2630 1216,3526 "/>
  <polygon class="fil1" points="1996,3259 1089,3919 978,4257 1996,3517 "/>
  <polygon class="fil2" points="2730,1858 4279,1858 4602,1624 2892,1622 2598,726 2480,1089 "/>
  <path class="fil3" d="M2370 2094l0 599 -207 0 -12 0c-11,0 -20,-1 -26,-6 -6,-3 -9,-9 -9,-16 0,-12 6,-20 19,-24 10,-3 16,-5 18,-6 1,-1 3,-2 5,-5 4,-5 6,-12 6,-22l0 -440c0,-10 -2,-18 -6,-22 -2,-3 -4,-5 -5,-5 -2,-1 -8,-3 -18,-6 -13,-4 -19,-12 -19,-24 0,-7 3,-13 9,-17 6,-4 15,-6 26,-6l12 0 207 0zm144 289c28,6 49,11 64,16 15,5 29,11 41,19 21,12 37,29 48,49 11,21 16,44 16,69 0,50 -19,89 -58,117 -21,15 -43,25 -67,31 -24,6 -56,9 -95,9l-56 0 0 -46c13,0 22,-2 30,-5 7,-2 13,-6 19,-12 10,-11 15,-28 15,-51l0 -99c0,-15 -1,-26 -4,-34 -3,-9 -7,-16 -14,-23 -6,-5 -11,-9 -18,-11 -6,-3 -14,-4 -26,-6l0 -46c12,0 20,-2 27,-4 6,-2 12,-5 17,-10 5,-4 9,-10 12,-17 4,-7 6,-14 6,-19l0 -25 0 -76c0,-8 -1,-16 -4,-25 -3,-9 -6,-15 -10,-20 -6,-7 -13,-12 -20,-15 -7,-3 -17,-6 -30,-7l0 -48 54 0c70,0 124,14 161,41 17,13 30,28 39,46 9,18 14,37 14,58 0,21 -5,40 -14,58 -9,18 -22,33 -38,45 -13,10 -26,17 -42,23 -16,6 -38,12 -67,18z"/>
  <path id="1" class="fil3" d="M3007 2693l-207 0 -12 0c-11,0 -20,-1 -26,-6 -6,-3 -9,-9 -9,-16 0,-12 6,-20 19,-24 10,-3 16,-5 18,-6 1,-1 3,-2 5,-5 4,-5 6,-12 6,-22l0 -440c0,-10 -2,-18 -6,-22 -2,-3 -4,-5 -5,-5 -2,-1 -8,-3 -18,-6 -13,-4 -19,-12 -19,-24 0,-7 3,-13 9,-17 6,-4 15,-6 26,-6l12 0 208 0 15 0c14,0 24,2 30,5 8,5 12,11 12,19 0,13 -7,21 -22,24 -12,3 -20,4 -22,5 -2,1 -4,3 -7,6 -5,5 -7,13 -7,24l0 516zm37 0l0 -49c15,-2 27,-5 36,-8 9,-4 18,-8 26,-14 13,-10 25,-23 36,-40 10,-17 19,-36 26,-57 5,-16 10,-26 14,-32 4,-5 10,-7 18,-7 9,0 15,3 19,10 2,3 3,10 3,19l0 178 -178 0z"/>
  <path id="2" class="fil3" d="M3300 2518l0 -344c0,-10 -2,-18 -6,-22 -2,-3 -3,-5 -5,-5 -2,-1 -8,-3 -18,-6 -13,-4 -19,-12 -19,-24 0,-7 3,-13 9,-17 6,-4 15,-6 26,-6l12 0 208 0 12 0 17 2c5,1 9,4 13,8 3,3 5,8 5,13 0,12 -6,20 -19,24 -10,3 -16,5 -18,6 -2,0 -3,2 -5,5 -4,4 -6,12 -6,22l0 368c0,25 1,43 2,52 2,10 5,19 9,27 4,7 8,13 13,16 5,3 15,7 29,11l0 57 -10 0c-41,0 -74,-3 -101,-10 -31,-8 -59,-19 -82,-35 -24,-15 -41,-33 -50,-52 -11,-21 -16,-50 -16,-90zm300 187l0 -57c31,-4 57,-16 78,-36 24,-23 36,-57 36,-100l0 -286c0,-40 -17,-68 -49,-84 -10,-5 -16,-9 -19,-12 -3,-3 -5,-8 -5,-15 0,-8 3,-13 9,-16 6,-3 16,-5 29,-5l114 0c10,0 16,0 20,1 3,0 6,1 9,3 8,4 12,10 12,18 0,6 -2,12 -7,16 -2,2 -8,6 -20,12 -14,7 -24,18 -32,33 -8,14 -12,31 -12,49l0 287c0,49 -11,89 -34,121 -17,23 -41,42 -73,56 -15,7 -34,12 -56,15z"/>
  <path id="3" class="fil3" d="M4158 2094l0 599 -207 0 -12 0c-11,0 -20,-1 -26,-6 -6,-3 -9,-9 -9,-16 0,-12 6,-20 18,-24 11,-3 17,-5 18,-6 2,-1 4,-2 6,-5 3,-5 5,-12 5,-22l0 -440c0,-10 -2,-18 -5,-22 -2,-3 -4,-5 -6,-5 -1,-1 -7,-3 -18,-6 -12,-4 -18,-12 -18,-24 0,-7 3,-13 9,-17 6,-4 15,-6 26,-6l12 0 207 0zm41 0l187 0 0 156c0,9 -2,15 -5,19 -4,4 -10,7 -18,7 -7,0 -12,-2 -15,-4 -3,-3 -6,-8 -9,-17 -12,-34 -29,-60 -52,-77 -23,-18 -52,-29 -88,-32l0 -52zm-2 320l0 -51c18,-8 31,-17 40,-27 8,-9 15,-22 19,-38 2,-11 5,-19 9,-23 4,-5 10,-7 18,-7 9,0 16,4 20,11 2,4 3,13 3,26l0 167c0,14 -1,24 -5,29 -3,6 -9,8 -17,8 -8,0 -13,-2 -17,-6 -4,-4 -7,-11 -10,-21 -5,-20 -13,-36 -22,-46 -10,-11 -23,-18 -38,-22zm3 279l0 -47c20,-3 36,-7 50,-12 13,-6 26,-14 39,-25 14,-10 24,-22 32,-33 8,-12 15,-27 23,-46 3,-10 7,-16 10,-19 4,-4 9,-5 16,-5 8,0 14,2 18,7 3,5 5,13 5,25l0 155 -193 0z"/>
  <path class="fil4" d="M2477 2941l0 516c0,12 2,20 7,25 2,3 4,5 6,5 2,1 9,3 21,6 14,3 21,11 21,24 0,8 -4,14 -12,18 -5,4 -15,6 -28,6l-14 0 -196 0 -14 0c-13,0 -23,-2 -29,-6 -7,-4 -10,-10 -10,-18 0,-13 7,-21 21,-24 11,-3 18,-5 20,-6 2,0 4,-2 6,-5 4,-5 7,-13 7,-25l0 -516 194 0zm152 0l0 180c0,8 -3,15 -8,20 -4,5 -11,8 -18,8 -7,0 -13,-3 -18,-7 -5,-5 -8,-12 -10,-20l-4 -27c-4,-27 -13,-51 -25,-70 -8,-13 -19,-23 -32,-30l0 -54 115 0zm-497 0l115 0 0 54c-14,7 -24,17 -32,30 -12,19 -21,43 -25,70l-5 27c-1,8 -4,15 -9,20 -5,4 -11,7 -18,7 -8,0 -14,-3 -19,-8 -4,-5 -7,-12 -7,-20l0 -180z"/>
  <path id="1" class="fil4" d="M2921 2941l0 600 -194 0 -12 0c-10,0 -18,-2 -24,-6 -6,-4 -9,-10 -9,-17 0,-12 6,-20 18,-24 9,-3 15,-5 17,-6 1,-1 3,-2 5,-5 3,-5 5,-12 5,-22l0 -440c0,-10 -2,-17 -5,-22 -2,-3 -4,-4 -5,-5 -2,-1 -8,-3 -17,-6 -12,-4 -18,-12 -18,-24 0,-7 3,-13 9,-17 6,-4 14,-6 24,-6l12 0 194 0zm39 0l176 0 0 156c0,9 -1,16 -5,20 -3,4 -9,6 -16,6 -7,0 -12,-2 -14,-4 -3,-3 -6,-8 -9,-16 -11,-34 -27,-60 -49,-78 -21,-18 -49,-29 -83,-32l0 -52zm-2 320l0 -51c17,-8 30,-17 38,-26 8,-10 14,-23 18,-39 2,-11 5,-19 9,-23 4,-4 9,-6 16,-6 9,0 16,3 19,10 2,4 3,13 3,26l0 168c0,14 -1,23 -4,28 -3,6 -9,8 -17,8 -7,0 -12,-2 -16,-6 -4,-4 -7,-11 -9,-20 -5,-21 -12,-36 -21,-47 -9,-11 -21,-18 -36,-22zm3 280l0 -48c19,-3 35,-7 47,-12 12,-6 25,-13 37,-24 13,-11 23,-22 30,-34 8,-12 15,-27 21,-46 4,-9 7,-16 10,-19 4,-4 9,-5 15,-5 8,0 14,2 17,7 3,5 5,13 5,25l0 156 -182 0z"/>
  <path id="2" class="fil4" d="M3384 2941l176 0 121 516c3,9 5,17 8,24 3,6 9,11 18,14 7,3 13,6 16,10 2,3 4,7 4,13 0,15 -12,23 -34,23l-219 0c-8,0 -15,-2 -21,-7 -5,-4 -8,-10 -8,-17 0,-6 2,-10 4,-13 2,-3 8,-6 16,-11 6,-3 10,-6 12,-10 2,-3 3,-8 3,-13 0,-5 0,-9 -1,-13l-14 -64 -122 0 12 -52 98 0 -80 -357 11 -43zm-31 112l23 91 -78 283c-2,9 -3,16 -3,23 0,19 9,32 26,40l15 7c10,4 15,11 15,22 0,14 -11,22 -33,22l-111 0c-11,0 -19,-3 -25,-7 -7,-5 -10,-11 -10,-19 0,-8 7,-15 19,-21 12,-5 21,-10 27,-14 6,-4 11,-10 16,-18 9,-12 15,-27 20,-47l99 -362z"/>
  <path id="3" class="fil4" d="M4154 2941l194 0 12 0c22,0 33,8 33,23 0,12 -6,20 -18,24 -9,3 -15,5 -17,6 -1,1 -3,2 -5,5 -3,5 -5,12 -5,22l0 440c0,10 2,17 5,22 2,3 4,4 5,5 2,1 8,3 17,6 12,4 18,12 18,24 0,15 -11,23 -33,23l-12 0 -195 0 -14 0c-13,0 -23,-2 -29,-6 -7,-4 -10,-10 -10,-18 0,-13 7,-21 21,-24 11,-3 18,-5 20,-6 2,0 4,-2 6,-5 4,-5 7,-13 7,-25l0 -516zm-161 0l87 247 38 -133 0 146 -101 340 -24 0 -169 -506c-6,-17 -12,-28 -18,-34 -4,-4 -11,-7 -20,-8 -19,-4 -29,-14 -29,-28 0,-7 3,-13 9,-17 5,-5 13,-7 23,-7l204 0zm-170 203l46 132 0 132c0,14 1,23 2,29 1,6 3,12 7,19 6,13 14,23 25,29l16 11c11,7 17,14 17,22 0,15 -11,23 -33,23l-110 0c-22,0 -33,-8 -33,-22 0,-5 1,-9 3,-11 2,-3 6,-5 11,-9 33,-17 49,-48 49,-91l0 -264z"/>
 </g>
</svg>
